<svg width="393" height="213" viewBox="0 0 393 213" fill="none" xmlns="http://www.w3.org/2000/svg">
<path d="M174 180.5C108.914 215.788 30 219.5 0 202.848V0H393V199.435C360.5 179.867 257 135.5 174 180.5Z" fill="url(#paint0_linear_1_64)"/>
<path d="M290.128 100.372C217.747 61.847 128.476 68.0934 58.2965 108.722C34.7256 121.621 12.9476 137.637 -7.51559 155.204C10.1981 135.999 33.462 119.338 56.56 105.635C115.27 71.4951 188.515 62.5883 253.175 83.8982C266.01 88.1558 278.625 93.2331 290.31 100.053L290.126 100.355L290.128 100.372Z" fill="white" fill-opacity="0.66"/>
<path d="M290.146 100.37C215.873 65.5449 127.038 76.303 59.0075 120.403C36.1424 134.471 15.2045 151.573 -4.33749 170.146C12.3791 150.066 34.7607 132.253 57.121 117.419C114.022 80.3591 186.72 67.7849 252.386 85.8031C265.423 89.4023 278.276 93.8355 290.31 100.053L290.144 100.353L290.146 100.37Z" fill="white" fill-opacity="0.33"/>
<path d="M300.33 109.113C300.376 109.569 300.043 109.975 299.584 110.021C299.125 110.067 298.717 109.736 298.671 109.28C298.625 108.823 298.959 108.418 299.418 108.372C299.877 108.325 300.284 108.657 300.33 109.113Z" fill="white" fill-opacity="0.68"/>
<path d="M299.645 111.876C299.76 112.308 299.502 112.759 299.07 112.891C298.636 113.006 298.182 112.75 298.05 112.32C297.935 111.888 298.193 111.437 298.625 111.305C299.059 111.191 299.513 111.446 299.645 111.876Z" fill="white" fill-opacity="0.68"/>
<path d="M301.677 113.462C301.844 113.888 301.643 114.37 301.232 114.535C300.803 114.702 300.321 114.52 300.154 114.094C299.986 113.668 300.169 113.188 300.598 113.021C301.027 112.854 301.509 113.036 301.677 113.462Z" fill="white" fill-opacity="0.68"/>
<path d="M303.544 114.834C303.877 115.138 303.911 115.648 303.607 115.998C303.302 116.33 302.771 116.365 302.437 116.062C302.104 115.759 302.068 115.231 302.374 114.899C302.679 114.567 303.21 114.531 303.544 114.834Z" fill="white" fill-opacity="0.68"/>
<path d="M302.407 110.801C302.453 111.257 302.12 111.663 301.661 111.709C301.202 111.755 300.794 111.424 300.748 110.968C300.703 110.511 301.036 110.106 301.495 110.059C301.954 110.013 302.361 110.344 302.407 110.801Z" fill="white" fill-opacity="0.68"/>
<path d="M304.359 112.129C304.594 112.513 304.467 113.022 304.08 113.256C303.694 113.49 303.182 113.364 302.947 112.98C302.713 112.596 302.84 112.087 303.226 111.853C303.613 111.619 304.124 111.745 304.359 112.129Z" fill="white" fill-opacity="0.68"/>
<path d="M306.417 113.801C306.652 114.185 306.524 114.694 306.138 114.928C305.752 115.162 305.24 115.036 305.005 114.652C304.77 114.268 304.897 113.759 305.284 113.525C305.67 113.291 306.182 113.417 306.417 113.801Z" fill="white" fill-opacity="0.68"/>
<defs>
<linearGradient id="paint0_linear_1_64" x1="192.742" y1="0" x2="192.742" y2="209" gradientUnits="userSpaceOnUse">
<stop stop-color="#241D59"/>
<stop offset="0.5" stop-color="#232F7C"/>
</linearGradient>
</defs>
</svg>
